<svg version="1.0" xmlns="http://www.w3.org/2000/svg" width="25.000000pt" height="25.000000pt" viewBox="0 0 25 25" preserveAspectRatio="xMidYMid meet">

<g transform="translate(0.000000,25.000000) scale(0.100000,-0.100000)"
fill="#979797" stroke="none">
<path d="M105 240 c-3 -5 -24 -15 -45 -21 l-40 -12 0 -54 c0 -67 19 -104 66
-133 34 -22 37 -22 70 -7 49 24 74 70 74 140 0 40 -4 57 -13 57 -7 0 -30 9
-52 20 -45 23 -51 24 -60 10z m94 -92 c-2 -2 -23 -21 -47 -42 l-42 -40 -25 24
c-23 22 -34 50 -18 50 4 0 16 -9 28 -20 l21 -20 34 35 c22 23 37 32 44 25 5
-5 8 -11 5 -12z"/>
</g>
</svg>